<?xml version="1.0" encoding="UTF-8"?>
<svg width="45px" height="45px" viewBox="0 0 45 45" version="1.1" xmlns="http://www.w3.org/2000/svg" xmlns:xlink="http://www.w3.org/1999/xlink">
    <!-- Generator: Sketch 50 (54983) - http://www.bohemiancoding.com/sketch -->
    <title>lifestyle</title>
    <desc>Created with Sketch.</desc>
    <defs></defs>
    <g id="Page-1" stroke="none" stroke-width="1" fill="none" fill-rule="evenodd">
        <g id="lifestyle" transform="translate(1.000000, 1.000000)" fill="#E2A330" fill-rule="nonzero" stroke="#FFFFFF" stroke-width="0.4">
            <path d="M42.7969434,15.4612979 L35.8615076,8.5258017 C35.761724,8.42627733 35.6340253,8.35952318 35.4953165,8.33438201 L27.8663371,6.94728276 C27.4894828,6.87870804 27.1284067,7.12864599 27.0598326,7.50550351 C27.0466552,7.84941743 27.0268893,8.06927266 26.989698,8.28652708 L22.1938441,7.08807333 L22.1938441,6.86613746 C24.0703129,6.48312468 25.28098,4.65137343 24.8979705,2.77488823 C24.5149611,0.898403031 22.6832258,-0.312274529 20.8067569,0.0707382502 C19.1924475,0.400261015 18.0329293,1.82013048 18.0325825,3.4677443 L19.4196697,3.4677443 C19.4196697,2.31861927 20.3511855,1.38709543 21.5003005,1.38709543 C22.6494155,1.38709543 23.5809312,2.31861927 23.5809312,3.4677443 C23.5809312,4.61686933 22.6494155,5.54839317 21.5003005,5.54839317 C21.117291,5.54839317 20.8067569,5.85893002 20.8067569,6.24194279 L20.8067569,7.08737978 L16.010903,8.28652708 C15.9737117,8.06927266 15.9539457,7.84941743 15.9519518,7.62904204 C15.9520385,7.42331788 15.8608375,7.22825705 15.7029696,7.09639593 C15.5459687,6.96271424 15.3366052,6.90783713 15.1342639,6.94728276 L7.50528442,8.33438201 C7.3665757,8.35952318 7.23887699,8.42627733 7.1390934,8.5258017 L0.203657524,15.4612979 C-0.0670845544,15.7321291 -0.0670845544,16.171146 0.203657524,16.4419771 L5.75200623,21.9903741 C6.022835,22.2611185 6.46184809,22.2611185 6.73267686,21.9903741 L8.32297231,20.4000648 L8.32297231,24.9677826 L3.46816719,24.9677826 C1.558755,24.9622342 0.00643106595,26.5057289 0.000882717243,28.4151577 C-0.00232492185,29.5179883 0.520780329,30.5561454 1.40903628,31.2097292 C-0.123088199,32.329205 -0.457636287,34.4787754 0.66191645,36.0109132 C0.870933148,36.2970024 1.12294955,36.549021 1.40903628,36.7580395 C-0.128809934,37.8897391 -0.458069752,40.0539607 0.673619998,41.5918203 C1.32728483,42.4799973 2.36543289,43.0031071 3.46816719,42.9999861 L28.4357364,42.9999861 C28.6196988,42.9999861 30.1432753,42.9999861 34.6776287,42.9999861 L34.6776287,20.4000648 L36.2679241,21.9903741 C36.5387529,22.2611185 36.977766,22.2611185 37.2485947,21.9903741 L42.7969434,16.4419771 C43.0676855,16.171146 43.0676855,15.7320424 42.7969434,15.4612979 Z M21.5003005,8.34339815 L26.5437495,9.60427137 C25.4984059,11.386087 23.5652398,12.4565809 21.5003005,12.3971957 C19.4353611,12.4565809 17.5021951,11.386087 16.4568515,9.60427137 L21.5003005,8.34339815 Z M1.38753643,28.4355307 C1.38753643,27.2864057 2.31905216,26.3548819 3.46816719,26.3548819 L18.7261261,26.3548819 C19.8752412,26.3548819 20.8067569,27.2864057 20.8067569,28.4355307 C20.8067569,29.5846558 19.8752412,30.5161796 18.7261261,30.5161796 L3.46816719,30.5161796 C2.31905216,30.5161796 1.38753643,29.5845691 1.38753643,28.4355307 Z M1.38753643,33.9839277 C1.38753643,32.8348027 2.31905216,31.9032788 3.46816719,31.9032788 L18.7261261,31.9032788 C19.8752412,31.9032788 20.8067569,32.8348027 20.8067569,33.9839277 C20.8067569,35.1330527 19.8752412,36.0645766 18.7261261,36.0645766 L3.46816719,36.0645766 C2.31905216,36.0645766 1.38753643,35.132966 1.38753643,33.9839277 Z M18.7261261,41.6129736 L17.339039,41.6129736 L3.46816719,41.6129736 C2.31905216,41.6129736 1.38753643,40.6814497 1.38753643,39.5323247 C1.38753643,38.3831997 2.31905216,37.4516758 3.46816719,37.4516758 L18.7261261,37.4516758 C19.8752412,37.4516758 20.8067569,38.3831997 20.8067569,39.5323247 C20.8067569,40.6814497 19.8752412,41.6129736 18.7261261,41.6129736 Z M36.7582594,20.5193553 L32.3937896,16.1548476 L31.413119,17.1355267 L33.2905415,19.0129656 L33.2905415,41.6129736 L27.7421928,41.6129736 L21.4822683,41.6129736 C22.636585,40.1175072 22.3601211,37.9694973 20.8647545,36.815084 C22.3208492,35.6386504 22.6553973,33.4890801 21.5359313,31.9568555 C21.3269146,31.6707663 21.0748982,31.4187477 20.7887248,31.2097292 C22.3266577,30.0780296 22.6559175,27.913808 21.524141,26.3759484 C20.8697827,25.4867311 19.8300741,24.9635346 18.7261261,24.9677826 L9.71005949,24.9677826 L9.71005949,19.0129656 L11.587482,17.1355267 L10.6068113,16.1548476 L6.24234155,20.5193553 L1.67466347,15.9516375 L7.96649091,9.65975534 L14.6245094,8.44951124 C15.0780869,11.4567424 17.9881958,13.7842949 21.4989134,13.7842949 C25.009631,13.7842949 27.9197399,11.4567424 28.3733174,8.44951124 L35.0313359,9.65975534 L41.3259375,15.9516375 L36.7582594,20.5193553 Z" id="Shape"></path>
        </g>
    </g>
</svg>