<?xml version="1.0" encoding="UTF-8"?>
<svg width="42px" height="42px" viewBox="0 0 42 42" version="1.1" xmlns="http://www.w3.org/2000/svg" xmlns:xlink="http://www.w3.org/1999/xlink">
    <!-- Generator: Sketch 49.2 (51160) - http://www.bohemiancoding.com/sketch -->
    <title>Shape</title>
    <desc>Created with Sketch.</desc>
    <defs></defs>
    <g id="Page-1" stroke="none" stroke-width="1" fill="none" fill-rule="evenodd">
        <g id="Brands_Desktop" transform="translate(-181.000000, -2221.000000)" fill-rule="nonzero" stroke="#454545">
            <g id="Brands" transform="translate(0.000000, 2048.000000)">
                <g id="Brand-List" transform="translate(153.000000, 172.000000)">
                    <g id="if_love-like-popular-favorite_2205225" transform="translate(0.000000, 2.000000)">
                        <path d="M64,0 L34,0 C31.2375,0 29,2.2375 29,5 L29,30 C29,32.7625 31.2375,35 34,35 L43.79,35 L49,40 L54,35 L64,35 C66.7625,35 69,32.7625 69,30 L69,5 C69,2.2375 66.7625,0 64,0 Z M57.3569118,18.8227344 L55.6858339,20.5961509 L48.9990865,27.6923077 L42.3123391,20.5961509 L40.6412612,18.8227344 C38.7947933,16.8625113 38.7947933,13.6868006 40.6412612,11.7265775 C42.4877292,9.7663545 45.4815407,9.7663545 47.3280086,11.7265775 L48.9990865,13.499994 L50.6701644,11.7265775 C52.5166323,9.7663545 55.5104438,9.7663545 57.3569118,11.7265775 C59.2058157,13.6868006 59.2058157,16.8625113 57.3569118,18.8227344 Z" id="Shape"></path>
                    </g>
                </g>
            </g>
        </g>
    </g>
</svg>